#!OML:ASF X:\für Bonn\!DataBase\2005_08_10_Bjorn_Final\c3d\bjorn.ASF
:FULLY-SPECIFIED
:DEGREES
57
root -0.296254 19.4957 17.8505 -176.668 -12.3415 -533.522
lowerback 28.7481 6.24756 -4.50368
upperback 21.2751 0.243544 -0.201416
thorax 7.94126 -2.94993 1.76537
lowerneck 1.45441 -3.26892 0.732465
upperneck 21.9388 -11.0162 16.6417
head 7.41924 -4.83972 4.59857
rclavicle -6.36111e-015 -5.80451e-014
rhumerus -19.4962 -9.21882 -86.6667
rradius 34.7992
rwrist -15.3332
rhand -14.0876 1.53874
rfingers 7.12502
rthumb 12.0446 -28.0947
lclavicle -6.36111e-015 -5.80451e-014
lhumerus 3.44248 -3.78136 74.7408
lradius 54.2943
lwrist -12.5729
lhand -33.9468 -365.526
lfingers 7.12502
lthumb -7.12825 24.334
rfemur -22.9175 -8.13754 18.6559
rtibia 32.9321
rfoot -8.6469 20.8648
rtoes -10.1908
lfemur -19.3765 4.02095 -7.64998
ltibia 23.7146
lfoot -4.84248 1.85171
ltoes -13.3223
58
root -0.326994 19.4886 17.8918 -176.601 -12.0093 -533.648
lowerback 29.1759 6.23719 -4.12239
upperback 21.3114 0.199382 -0.0675184
thorax 7.81781 -2.96677 1.71294
lowerneck 1.58613 -3.44498 0.773116
upperneck 21.5292 -11.1285 16.6849
head 7.26983 -4.90028 4.59898
rclavicle 1.59028e-014 2.46493e-014
rhumerus -19.3219 -9.36905 -86.4717
rradius 34.84
rwrist -15.5407
rhand -13.8712 1.25199
rfingers 7.12502
rthumb 12.2533 -28.369
lclavicle 1.59028e-014 2.46493e-014
lhumerus 3.68415 -4.33394 74.8272
lradius 55.2416
lwrist -11.7755
lhand -34.3014 -365.937
lfingers 7.12502
lthumb -7.47049 23.9109
rfemur -23.0016 -8.36568 18.4032
rtibia 32.9461
rfoot -9.07056 20.3182
rtoes -10.3956
lfemur -19.6186 4.19688 -7.90589
ltibia 24.0486
lfoot -4.94863 1.96917
ltoes -13.2108
59
root -0.357961 19.479 17.9323 -176.554 -11.6731 -533.773
lowerback 29.6048 6.22773 -3.71089
upperback 21.3656 0.156826 0.0611943
thorax 7.71747 -2.98346 1.63789
lowerneck 1.69738 -3.61398 0.855993
upperneck 21.0888 -11.2276 16.7444
head 7.11287 -4.95187 4.59804
rclavicle -9.54166e-015 -1.19271e-014
rhumerus -19.1136 -9.50413 -86.2968
rradius 34.8806
rwrist -15.7845
rhand -13.6384 0.942591
rfingers 7.12502
rthumb 12.4777 -28.6649
lclavicle -9.54166e-015 -1.19271e-014
lhumerus 3.93638 -4.95912 74.8316
lradius 56.178
lwrist -10.98
lhand -34.5822 -366.291
lfingers 7.12502
lthumb -7.74149 23.5473
rfemur -23.072 -8.59232 18.1374
rtibia 32.9631
rfoot -9.31688 19.7863
rtoes -9.84196
lfemur -19.8469 4.32725 -8.15843
ltibia 24.4102
lfoot -5.08433 2.1109
ltoes -13.1597
60
root -0.38957 19.4676 17.9736 -176.5 -11.3326 -533.902
lowerback 30.0593 6.20781 -3.324
upperback 21.3818 0.109809 0.220429
thorax 7.56568 -3.0026 1.61261
lowerneck 1.89763 -3.77453 0.832294
upperneck 20.5822 -11.2967 16.8516
head 6.9223 -5.00328 4.63671
rclavicle -4.92986e-014 -5.24792e-014
rhumerus -18.9169 -9.49147 -86.0447
rradius 34.893
rwrist -16.0793
rhand -13.3618 0.650015
rfingers 7.12502
rthumb 12.7444 -28.941
lclavicle -4.92986e-014 -5.24792e-014
lhumerus 4.08001 -5.5884 74.8691
lradius 57.1339
lwrist -10.2693
lhand -34.7894 -366.448
lfingers 7.12502
lthumb -7.94155 23.3824
rfemur -23.1718 -8.76349 17.8534
rtibia 32.9804
rfoot -9.50445 19.1956
rtoes -9.09625
lfemur -20.1069 4.40534 -8.40622
ltibia 24.8032
lfoot -5.24353 2.32138
ltoes -13.0708
